<svg width="25" height="25" viewBox="0 0 25 25" fill="none" xmlns="http://www.w3.org/2000/svg">
<g opacity="0.88">
<path d="M18.4492 15.2606C18.0208 15.2605 17.5993 15.1525 17.2237 14.9466C16.848 14.7406 16.5302 14.4434 16.2996 14.0824C16.0692 14.4436 15.7515 14.7409 15.3758 14.9468C15.0001 15.1528 14.5786 15.2607 14.1501 15.2607C13.7217 15.2607 13.3001 15.1528 12.9245 14.9468C12.5488 14.7409 12.231 14.4436 12.0006 14.0824C11.7702 14.4436 11.4524 14.7409 11.0768 14.9468C10.7011 15.1528 10.2795 15.2607 9.8511 15.2607C9.42266 15.2607 9.00113 15.1528 8.62544 14.9468C8.24975 14.7409 7.93202 14.4436 7.70159 14.0824C7.40472 14.5476 6.96498 14.9039 6.44837 15.0979C5.93176 15.292 5.36615 15.3132 4.83643 15.1585C4.30671 15.0038 3.84145 14.6815 3.5105 14.2399C3.17955 13.7983 3.00074 13.2613 3.00093 12.7095C3.00093 12.603 3.04325 12.5008 3.11857 12.4255C3.19389 12.3502 3.29606 12.3079 3.40258 12.3079C3.5091 12.3079 3.61126 12.3502 3.68659 12.4255C3.76191 12.5008 3.80423 12.603 3.80423 12.7095C3.80158 12.9407 3.84483 13.1701 3.93148 13.3845C4.01813 13.5989 4.14645 13.7939 4.30902 13.9584C4.47159 14.1228 4.66517 14.2533 4.87854 14.3424C5.09192 14.4315 5.32085 14.4774 5.55209 14.4774C5.78332 14.4774 6.01225 14.4315 6.22563 14.3424C6.43901 14.2533 6.63258 14.1228 6.79515 13.9584C6.95772 13.7939 7.08604 13.5989 7.17269 13.3845C7.25934 13.1701 7.30259 12.9407 7.29995 12.7095C7.29995 12.603 7.34226 12.5008 7.41759 12.4255C7.49291 12.3502 7.59507 12.3079 7.70159 12.3079C7.80812 12.3079 7.91028 12.3502 7.9856 12.4255C8.06093 12.5008 8.10324 12.603 8.10324 12.7095C8.10059 12.9407 8.14385 13.1701 8.23049 13.3845C8.31714 13.5989 8.44547 13.7939 8.60804 13.9584C8.7706 14.1228 8.96418 14.2533 9.17756 14.3424C9.39093 14.4315 9.61987 14.4774 9.8511 14.4774C10.0823 14.4774 10.3113 14.4315 10.5246 14.3424C10.738 14.2533 10.9316 14.1228 11.0942 13.9584C11.2567 13.7939 11.3851 13.5989 11.4717 13.3845C11.5584 13.1701 11.6016 12.9407 11.599 12.7095C11.599 12.603 11.6413 12.5008 11.7166 12.4255C11.7919 12.3502 11.8941 12.3079 12.0006 12.3079C12.1071 12.3079 12.2093 12.3502 12.2846 12.4255C12.3599 12.5008 12.4023 12.603 12.4023 12.7095C12.3996 12.9407 12.4429 13.1701 12.5295 13.3845C12.6162 13.5989 12.7445 13.7939 12.907 13.9584C13.0696 14.1228 13.2632 14.2533 13.4766 14.3424C13.6899 14.4315 13.9189 14.4774 14.1501 14.4774C14.3813 14.4774 14.6103 14.4315 14.8237 14.3424C15.037 14.2533 15.2306 14.1228 15.3932 13.9584C15.5557 13.7939 15.6841 13.5989 15.7707 13.3845C15.8574 13.1701 15.9006 12.9407 15.898 12.7095C15.898 12.603 15.9403 12.5008 16.0156 12.4255C16.0909 12.3502 16.1931 12.3079 16.2996 12.3079C16.4061 12.3079 16.5083 12.3502 16.5836 12.4255C16.659 12.5008 16.7013 12.603 16.7013 12.7095C16.6986 12.9407 16.7419 13.1701 16.8285 13.3845C16.9152 13.5989 17.0435 13.7939 17.2061 13.9584C17.3686 14.1228 17.5622 14.2533 17.7756 14.3424C17.989 14.4315 18.2179 14.4774 18.4491 14.4774C18.6804 14.4774 18.9093 14.4315 19.1227 14.3424C19.3361 14.2533 19.5296 14.1228 19.6922 13.9584C19.8548 13.7939 19.9831 13.5989 20.0697 13.3845C20.1564 13.1701 20.1996 12.9407 20.197 12.7095C20.197 12.603 20.2393 12.5008 20.3146 12.4255C20.39 12.3502 20.4921 12.3079 20.5986 12.3079C20.7052 12.3079 20.8073 12.3502 20.8826 12.4255C20.958 12.5008 21.0003 12.603 21.0003 12.7095C20.9996 13.3858 20.7306 14.0343 20.2523 14.5125C19.7741 14.9908 19.1256 15.2599 18.4492 15.2606V15.2606Z" fill="#AFD1FD"/>
<path d="M18.449 19.9989C18.0206 19.9987 17.5991 19.8907 17.2234 19.6847C16.8477 19.4788 16.5299 19.1815 16.2994 18.8204C16.069 19.1816 15.7513 19.479 15.3756 19.685C14.9999 19.891 14.5783 19.9989 14.1499 19.9989C13.7214 19.9989 13.2999 19.891 12.9242 19.685C12.5485 19.479 12.2308 19.1816 12.0004 18.8204C11.77 19.1816 11.4523 19.479 11.0766 19.685C10.7009 19.891 10.2793 19.9989 9.85086 19.9989C9.4224 19.9989 9.00084 19.891 8.62515 19.685C8.24946 19.479 7.93174 19.1816 7.70135 18.8204C7.40465 19.2858 6.96496 19.6425 6.4483 19.8367C5.93165 20.031 5.36591 20.0524 4.83603 19.8978C4.30616 19.7432 3.84075 19.4208 3.50969 18.9792C3.17863 18.5375 2.99978 18.0004 3 17.4484C3 17.3419 3.04232 17.2398 3.11764 17.1644C3.19296 17.0891 3.29512 17.0468 3.40165 17.0468C3.50817 17.0468 3.61033 17.0891 3.68566 17.1644C3.76098 17.2398 3.8033 17.3419 3.8033 17.4484C3.80065 17.6797 3.8439 17.9091 3.93055 18.1235C4.0172 18.3378 4.14552 18.5329 4.30809 18.6973C4.47066 18.8618 4.66423 18.9923 4.87761 19.0814C5.09099 19.1705 5.31992 19.2164 5.55116 19.2164C5.78239 19.2164 6.01132 19.1705 6.2247 19.0814C6.43808 18.9923 6.63165 18.8618 6.79422 18.6973C6.95679 18.5329 7.08511 18.3378 7.17176 18.1235C7.25841 17.9091 7.30166 17.6797 7.29901 17.4484C7.29901 17.3419 7.34133 17.2398 7.41665 17.1644C7.49198 17.0891 7.59414 17.0468 7.70066 17.0468C7.80719 17.0468 7.90935 17.0891 7.98467 17.1644C8.05999 17.2398 8.10231 17.3419 8.10231 17.4484C8.09966 17.6797 8.14291 17.9091 8.22956 18.1235C8.31621 18.3378 8.44454 18.5329 8.60711 18.6973C8.76967 18.8618 8.96325 18.9923 9.17663 19.0814C9.39 19.1705 9.61894 19.2164 9.85017 19.2164C10.0814 19.2164 10.3103 19.1705 10.5237 19.0814C10.7371 18.9923 10.9307 18.8618 11.0932 18.6973C11.2558 18.5329 11.3841 18.3378 11.4708 18.1235C11.5574 17.9091 11.6007 17.6797 11.598 17.4484C11.598 17.3419 11.6403 17.2398 11.7157 17.1644C11.791 17.0891 11.8932 17.0468 11.9997 17.0468C12.1062 17.0468 12.2084 17.0891 12.2837 17.1644C12.359 17.2398 12.4013 17.3419 12.4013 17.4484C12.3987 17.6797 12.4419 17.9091 12.5286 18.1235C12.6152 18.3378 12.7436 18.5329 12.9061 18.6973C13.0687 18.8618 13.2623 18.9923 13.4756 19.0814C13.689 19.1705 13.918 19.2164 14.1492 19.2164C14.3804 19.2164 14.6094 19.1705 14.8227 19.0814C15.0361 18.9923 15.2297 18.8618 15.3923 18.6973C15.5548 18.5329 15.6831 18.3378 15.7698 18.1235C15.8564 17.9091 15.8997 17.6797 15.897 17.4484C15.897 17.3419 15.9394 17.2398 16.0147 17.1644C16.09 17.0891 16.1922 17.0468 16.2987 17.0468C16.4052 17.0468 16.5074 17.0891 16.5827 17.1644C16.658 17.2398 16.7003 17.3419 16.7003 17.4484C16.6977 17.6797 16.7409 17.9091 16.8276 18.1235C16.9142 18.3378 17.0426 18.5329 17.2051 18.6973C17.3677 18.8618 17.5613 18.9923 17.7747 19.0814C17.988 19.1705 18.217 19.2164 18.4482 19.2164C18.6794 19.2164 18.9084 19.1705 19.1217 19.0814C19.3351 18.9923 19.5287 18.8618 19.6913 18.6973C19.8538 18.5329 19.9822 18.3378 20.0688 18.1235C20.1555 17.9091 20.1987 17.6797 20.1961 17.4484C20.1961 17.3419 20.2384 17.2398 20.3137 17.1644C20.389 17.0891 20.4912 17.0468 20.5977 17.0468C20.7042 17.0468 20.8064 17.0891 20.8817 17.1644C20.957 17.2398 20.9994 17.3419 20.9994 17.4484C20.9984 18.1246 20.7295 18.7727 20.2514 19.2508C19.7733 19.7289 19.1251 19.9979 18.449 19.9989Z" fill="#9AA1EB"/>
<path d="M13.8 3.63382L12.2836 2.11772C12.2463 2.08041 12.202 2.0508 12.1533 2.0306C12.1046 2.0104 12.0524 2 11.9997 2C11.9469 2 11.8947 2.0104 11.846 2.0306C11.7973 2.0508 11.753 2.08041 11.7157 2.11772L10.1993 3.63382C10.124 3.70915 10.0817 3.81131 10.0817 3.91783C10.0817 4.02436 10.124 4.12652 10.1993 4.20184C10.2747 4.27716 10.3768 4.31948 10.4834 4.31948C10.5899 4.31948 10.6921 4.27716 10.7674 4.20184L11.598 3.37127V7.37472C11.598 7.48124 11.6403 7.58339 11.7156 7.65871C11.791 7.73403 11.8931 7.77635 11.9997 7.77635C12.1062 7.77635 12.2083 7.73403 12.2837 7.65871C12.359 7.58339 12.4013 7.48124 12.4013 7.37472V3.37127L13.2319 4.20184C13.2692 4.23914 13.3135 4.26872 13.3622 4.28891C13.411 4.30909 13.4632 4.31948 13.5159 4.31948C13.5687 4.31948 13.6209 4.30909 13.6696 4.28891C13.7184 4.26872 13.7627 4.23914 13.8 4.20184C13.8373 4.16454 13.8668 4.12027 13.887 4.07154C13.9072 4.0228 13.9176 3.97058 13.9176 3.91783C13.9176 3.86509 13.9072 3.81286 13.887 3.76413C13.8668 3.7154 13.8373 3.67112 13.8 3.63382V3.63382Z" fill="#BFFDFF"/>
<path d="M5.90833 4.86402C5.87105 4.82669 5.82677 4.79708 5.77804 4.77688C5.7293 4.75668 5.67707 4.74628 5.62431 4.74628C5.57155 4.74628 5.51931 4.75668 5.47058 4.77688C5.42184 4.79708 5.37757 4.82669 5.34029 4.86402L3.82412 6.38012C3.74879 6.45544 3.70647 6.5576 3.70647 6.66413C3.70647 6.77065 3.74879 6.87281 3.82412 6.94814C3.89945 7.02346 4.00161 7.06578 4.10814 7.06578C4.21467 7.06578 4.31684 7.02346 4.39217 6.94814L5.22277 6.11757V10.121C5.22277 10.2275 5.26509 10.3297 5.34041 10.405C5.41574 10.4803 5.5179 10.5226 5.62442 10.5226C5.73095 10.5226 5.83311 10.4803 5.90843 10.405C5.98376 10.3297 6.02607 10.2275 6.02607 10.121V6.11757L6.85668 6.94814C6.93245 7.02128 7.03391 7.06174 7.13922 7.06081C7.24453 7.05987 7.34526 7.01761 7.41972 6.94313C7.49417 6.86865 7.53639 6.76791 7.53729 6.6626C7.53818 6.5573 7.49768 6.45585 7.4245 6.38012L5.90833 4.86402Z" fill="#BFFDFF"/>
<path d="M20.1751 6.38012L18.6589 4.86402C18.6216 4.82669 18.5774 4.79708 18.5286 4.77688C18.4799 4.75668 18.4277 4.74628 18.3749 4.74628C18.3221 4.74628 18.2699 4.75668 18.2212 4.77688C18.1724 4.79708 18.1282 4.82669 18.0909 4.86402L16.5747 6.38012C16.5363 6.41716 16.5057 6.46147 16.4847 6.51047C16.4636 6.55946 16.4525 6.61216 16.4521 6.66549C16.4516 6.71882 16.4617 6.77171 16.4819 6.82107C16.5021 6.87043 16.5319 6.91528 16.5696 6.953C16.6073 6.99072 16.6522 7.02055 16.7015 7.04075C16.7509 7.06096 16.8038 7.07113 16.8571 7.07068C16.9104 7.07022 16.9631 7.05916 17.0121 7.03812C17.0612 7.01708 17.1055 6.98649 17.1425 6.94814L17.9731 6.11757V10.121C17.9731 10.2275 18.0155 10.3297 18.0908 10.405C18.1661 10.4803 18.2683 10.5226 18.3748 10.5226C18.4813 10.5226 18.5835 10.4803 18.6588 10.405C18.7341 10.3297 18.7764 10.2275 18.7764 10.121V6.11757L19.6071 6.94814C19.6824 7.02346 19.7845 7.06578 19.8911 7.06578C19.9976 7.06578 20.0998 7.02346 20.1751 6.94814C20.2504 6.87281 20.2927 6.77065 20.2927 6.66413C20.2927 6.5576 20.2504 6.45544 20.1751 6.38012V6.38012Z" fill="#BFFDFF"/>
<path d="M9.83372 8.24542C9.78096 8.24539 9.72872 8.25576 9.67998 8.27593C9.63123 8.29611 9.58694 8.32569 9.54964 8.36299C9.51234 8.40029 9.48275 8.44458 9.46258 8.49332C9.44241 8.54206 9.43204 8.5943 9.43207 8.64705V12.0322C9.43207 12.1387 9.47438 12.2409 9.54971 12.3162C9.62503 12.3915 9.72719 12.4339 9.83372 12.4339C9.94024 12.4339 10.0424 12.3915 10.1177 12.3162C10.193 12.2409 10.2354 12.1387 10.2354 12.0322V8.64728C10.2354 8.59452 10.225 8.54227 10.2049 8.49351C10.1847 8.44476 10.1551 8.40046 10.1178 8.36314C10.0805 8.32582 10.0362 8.29621 9.98747 8.27602C9.93873 8.25582 9.88648 8.24542 9.83372 8.24542V8.24542Z" fill="#BFFDFF"/>
<path d="M14.1658 8.24542C14.113 8.24539 14.0608 8.25576 14.012 8.27593C13.9633 8.29611 13.919 8.32569 13.8817 8.36299C13.8444 8.40029 13.8148 8.44458 13.7946 8.49332C13.7745 8.54206 13.7641 8.5943 13.7641 8.64705V12.0322C13.7641 12.1387 13.8064 12.2409 13.8818 12.3162C13.9571 12.3915 14.0593 12.4339 14.1658 12.4339C14.2723 12.4339 14.3745 12.3915 14.4498 12.3162C14.5251 12.2409 14.5674 12.1387 14.5674 12.0322V8.64728C14.5675 8.59452 14.5571 8.54227 14.5369 8.49351C14.5167 8.44476 14.4872 8.40046 14.4499 8.36314C14.4126 8.32582 14.3683 8.29621 14.3195 8.27602C14.2708 8.25582 14.2185 8.24542 14.1658 8.24542V8.24542Z" fill="#BFFDFF"/>
</g>
</svg>
