<svg width="25" height="25" viewBox="0 0 25 25" fill="none" xmlns="http://www.w3.org/2000/svg">
<g clip-path="url(#clip0_2_383)">
<path d="M13.3349 0.370115C12.9175 -0.0473248 12.2913 -0.151721 11.7695 0.265767C11.7695 0.265767 11.6651 0.265767 11.6651 0.370115C10.8302 1.41374 3.10724 10.8065 3.10724 15.6072C3.10724 20.8254 7.28178 25 12.5 25C17.7182 25 21.8927 20.8254 21.8927 15.6072C21.8927 10.8065 14.1699 1.41374 13.3349 0.370115Z" fill="url(#paint0_linear_2_383)"/>
<path d="M10.1383 18.4002L16.4109 12.1276L14.935 10.6517L8.66238 16.9243L10.1383 18.4002Z" fill="white"/>
<path d="M9.36906 13.52C9.94544 13.52 10.4127 13.0527 10.4127 12.4764C10.4127 11.9 9.94544 11.4327 9.36906 11.4327C8.79269 11.4327 8.32544 11.9 8.32544 12.4764C8.32544 13.0527 8.79269 13.52 9.36906 13.52Z" fill="white"/>
<path d="M15.6309 17.6945C16.2073 17.6945 16.6745 17.2273 16.6745 16.6509C16.6745 16.0745 16.2073 15.6073 15.6309 15.6073C15.0545 15.6073 14.5873 16.0745 14.5873 16.6509C14.5873 17.2273 15.0545 17.6945 15.6309 17.6945Z" fill="white"/>
</g>
<defs>
<linearGradient id="paint0_linear_2_383" x1="5.14217" y1="21.5565" x2="19.8327" y2="6.87127" gradientUnits="userSpaceOnUse">
<stop stop-color="#34CDFA"/>
<stop offset="1" stop-color="#E8D9F1"/>
</linearGradient>
<clipPath id="clip0_2_383">
<rect width="25" height="25" fill="white"/>
</clipPath>
</defs>
</svg>
