<svg width="25" height="25" viewBox="0 0 25 25" fill="none" xmlns="http://www.w3.org/2000/svg">
<path d="M20.1087 3.26086C17.4114 3.26086 15.2174 5.45543 15.2174 8.15217C15.2174 8.45217 15.4603 8.69565 15.7609 8.69565C16.0614 8.69565 16.3043 8.45217 16.3043 8.15217C16.3043 6.05434 18.0114 4.34782 20.1087 4.34782C22.206 4.34782 23.913 6.05434 23.913 8.15217C23.913 10.25 22.206 11.9565 20.1087 11.9565H0.543478C0.243478 11.9565 0 12.2 0 12.5C0 12.8 0.243478 13.0435 0.543478 13.0435H20.1087C22.806 13.0435 25 10.8489 25 8.15217C25 5.45543 22.806 3.26086 20.1087 3.26086Z" fill="#007AFF"/>
<path d="M0.543478 9.78258H9.78261C11.8804 9.78258 13.587 8.07606 13.587 5.97824C13.587 3.88041 11.8804 2.17389 9.78261 2.17389C7.68478 2.17389 5.97826 3.88041 5.97826 5.97824C5.97826 6.27824 6.22174 6.52171 6.52174 6.52171C6.82174 6.52171 7.06522 6.27824 7.06522 5.97824C7.06522 4.47987 8.28424 3.26085 9.78261 3.26085C11.281 3.26085 12.5 4.47987 12.5 5.97824C12.5 7.47661 11.281 8.69563 9.78261 8.69563H0.543478C0.243478 8.69563 0 8.93911 0 9.23911C0 9.53911 0.243478 9.78258 0.543478 9.78258Z" fill="#007AFF"/>
<path d="M19.0217 21.7391C17.5234 21.7391 16.3043 20.5201 16.3043 19.0217C16.3043 18.7218 16.0614 18.4783 15.7609 18.4783C15.4603 18.4783 15.2174 18.7218 15.2174 19.0217C15.2174 21.1196 16.9245 22.8261 19.0217 22.8261C21.119 22.8261 22.8261 21.1196 22.8261 19.0217C22.8261 16.9239 21.119 15.2174 19.0217 15.2174H0.543478C0.243478 15.2174 0 15.4609 0 15.7609C0 16.0609 0.243478 16.3044 0.543478 16.3044H19.0217C20.5201 16.3044 21.7391 17.5234 21.7391 19.0217C21.7391 20.5201 20.5201 21.7391 19.0217 21.7391Z" fill="#007AFF"/>
</svg>
